<?xml version="1.0" encoding="UTF-8"?>
<svg width="80" height="80" viewBox="0 0 80 80" xmlns="http://www.w3.org/2000/svg">
  <!-- Person with hard hat -->
  <circle cx="40" cy="25" r="12" fill="#FFD8B9" /> <!-- Head -->
  <path d="M30 25 Q 40 35, 50 25" stroke="#333333" stroke-width="1" fill="none" /> <!-- Smile -->
  <circle cx="35" cy="22" r="1.5" fill="#333333" /> <!-- Left eye -->
  <circle cx="45" cy="22" r="1.5" fill="#333333" /> <!-- Right eye -->
  
  <!-- Hard hat -->
  <path d="M28 20 Q 40 10, 52 20" stroke="#FF6600" stroke-width="2" fill="#FF6600" />
  <rect x="28" y="20" width="24" height="5" fill="#FF6600" rx="2" />
  
  <!-- Body -->
  <rect x="35" y="37" width="10" height="20" fill="#00ABE4" rx="2" /> <!-- Torso -->
  <rect x="30" y="37" width="5" height="15" fill="#00ABE4" rx="2" /> <!-- Left arm -->
  <rect x="45" y="37" width="5" height="15" fill="#00ABE4" rx="2" /> <!-- Right arm -->
  
  <!-- Legs -->
  <rect x="35" y="57" width="4" height="15" fill="#333333" rx="1" /> <!-- Left leg -->
  <rect x="41" y="57" width="4" height="15" fill="#333333" rx="1" /> <!-- Right leg -->
  
  <!-- Clipboard -->
  <rect x="48" y="45" width="10" height="15" fill="#FFFFFF" stroke="#333333" stroke-width="1" rx="1" />
  <line x1="50" y1="50" x2="56" y2="50" stroke="#333333" stroke-width="1" />
  <line x1="50" y1="54" x2="56" y2="54" stroke="#333333" stroke-width="1" />
</svg>
