<?xml version="1.0" encoding="UTF-8"?>
<svg width="80" height="80" viewBox="0 0 80 80" xmlns="http://www.w3.org/2000/svg">
  <!-- Person with glasses -->
  <circle cx="40" cy="25" r="12" fill="#FFD8B9" /> <!-- Head -->
  <path d="M30 27 Q 40 32, 50 27" stroke="#333333" stroke-width="1" fill="none" /> <!-- Smile -->
  
  <!-- Glasses -->
  <rect x="33" y="21" width="6" height="4" fill="none" stroke="#333333" stroke-width="1" rx="1" />
  <rect x="41" y="21" width="6" height="4" fill="none" stroke="#333333" stroke-width="1" rx="1" />
  <line x1="39" y1="23" x2="41" y2="23" stroke="#333333" stroke-width="1" />
  <line x1="33" y1="23" x2="31" y2="23" stroke="#333333" stroke-width="1" />
  <line x1="47" y1="23" x2="49" y2="23" stroke="#333333" stroke-width="1" />
  
  <!-- Body -->
  <rect x="35" y="37" width="10" height="20" fill="#6C63FF" rx="2" /> <!-- Torso -->
  <rect x="30" y="37" width="5" height="15" fill="#6C63FF" rx="2" /> <!-- Left arm -->
  <rect x="45" y="37" width="5" height="15" fill="#6C63FF" rx="2" /> <!-- Right arm -->
  
  <!-- Legs -->
  <rect x="35" y="57" width="4" height="15" fill="#333333" rx="1" /> <!-- Left leg -->
  <rect x="41" y="57" width="4" height="15" fill="#333333" rx="1" /> <!-- Right leg -->
  
  <!-- Laptop -->
  <rect x="25" y="50" width="15" height="10" fill="#E0E0E0" stroke="#333333" stroke-width="1" rx="1" />
  <rect x="25" y="48" width="15" height="2" fill="#333333" rx="1" />
</svg>
