<?xml version="1.0" encoding="UTF-8"?>
<svg width="80" height="80" viewBox="0 0 80 80" xmlns="http://www.w3.org/2000/svg">
  <!-- Person with tablet -->
  <circle cx="40" cy="25" r="12" fill="#FFD8B9" /> <!-- Head -->
  <path d="M35 28 Q 40 25, 45 28" stroke="#333333" stroke-width="1" fill="none" /> <!-- Neutral expression -->
  <circle cx="35" cy="22" r="1.5" fill="#333333" /> <!-- Left eye -->
  <circle cx="45" cy="22" r="1.5" fill="#333333" /> <!-- Right eye -->
  
  <!-- Hair -->
  <path d="M30 15 Q 40 10, 50 15" stroke="#663300" stroke-width="1" fill="#663300" />
  <path d="M28 25 Q 25 15, 30 15" stroke="#663300" stroke-width="1" fill="#663300" />
  <path d="M50 15 Q 55 15, 52 25" stroke="#663300" stroke-width="1" fill="#663300" />
  
  <!-- Body -->
  <rect x="35" y="37" width="10" height="20" fill="#E9F1FA" rx="2" /> <!-- Torso -->
  
  <!-- Arms holding tablet -->
  <path d="M35 42 L 25 50" stroke="#E9F1FA" stroke-width="5" stroke-linecap="round" />
  <path d="M45 42 L 55 50" stroke="#E9F1FA" stroke-width="5" stroke-linecap="round" />
  
  <!-- Tablet -->
  <rect x="25" y="45" width="30" height="20" fill="#333333" rx="2" />
  <rect x="27" y="47" width="26" height="16" fill="#00ABE4" rx="1" />
  
  <!-- Legs -->
  <rect x="35" y="57" width="4" height="15" fill="#333333" rx="1" /> <!-- Left leg -->
  <rect x="41" y="57" width="4" height="15" fill="#333333" rx="1" /> <!-- Right leg -->
</svg>
