<?xml version="1.0" encoding="UTF-8"?>
<svg width="400" height="300" viewBox="0 0 400 300" xmlns="http://www.w3.org/2000/svg">
  <!-- Background -->
  <rect x="0" y="0" width="400" height="300" fill="#E9F1FA" fill-opacity="0.5" rx="10" />
  
  <!-- Road -->
  <rect x="50" y="150" width="300" height="60" fill="#333333" rx="2" />
  
  <!-- Road markings -->
  <rect x="80" y="178" width="30" height="4" fill="#FFFFFF" />
  <rect x="140" y="178" width="30" height="4" fill="#FFFFFF" />
  <rect x="200" y="178" width="30" height="4" fill="#FFFFFF" />
  <rect x="260" y="178" width="30" height="4" fill="#FFFFFF" />
  <rect x="320" y="178" width="30" height="4" fill="#FFFFFF" />
  
  <!-- Construction barriers -->
  <rect x="120" y="120" width="160" height="10" fill="#FF6600" />
  <rect x="120" y="130" width="160" height="10" fill="#FFFFFF" />
  <rect x="120" y="140" width="160" height="10" fill="#FF6600" />
  
  <!-- Construction cones -->
  <polygon points="100,150 110,150 105,130" fill="#FF6600" />
  <rect x="100" y="150" width="10" height="5" fill="#FF6600" />
  <rect x="98" y="155" width="14" height="3" fill="#FFFFFF" />
  <rect x="98" y="160" width="14" height="3" fill="#FFFFFF" />
  
  <polygon points="290,150 300,150 295,130" fill="#FF6600" />
  <rect x="290" y="150" width="10" height="5" fill="#FF6600" />
  <rect x="288" y="155" width="14" height="3" fill="#FFFFFF" />
  <rect x="288" y="160" width="14" height="3" fill="#FFFFFF" />
  
  <!-- Road repair icon -->
  <circle cx="200" cy="100" r="30" fill="#00ABE4" />
  <path d="M185 100 L215 100 M200 85 L200 115" stroke="#FFFFFF" stroke-width="6" />
  
  <!-- Data visualization elements -->
  <rect x="50" y="50" width="40" height="60" fill="#00ABE4" rx="5" />
  <rect x="100" y="70" width="40" height="40" fill="#00ABE4" rx="5" />
  <rect x="150" y="60" width="40" height="50" fill="#00ABE4" rx="5" />
  <rect x="250" y="40" width="40" height="70" fill="#00ABE4" rx="5" />
  <rect x="300" y="55" width="40" height="55" fill="#00ABE4" rx="5" />
  
  <!-- Connection lines -->
  <path d="M70 50 L70 30 L330 30 L330 55" stroke="#00ABE4" stroke-width="2" fill="none" />
</svg>
