<?xml version="1.0" encoding="UTF-8"?>
<svg width="200" height="50" viewBox="0 0 200 50" xmlns="http://www.w3.org/2000/svg">
  <!-- Background shape -->
  <rect x="5" y="5" width="40" height="40" rx="8" fill="#E9F1FA" />
  
  <!-- Road -->
  <rect x="10" y="22" width="30" height="8" rx="1" fill="#333333" />
  
  <!-- Road markings -->
  <rect x="15" y="25" width="4" height="2" fill="#FFFFFF" />
  <rect x="25" y="25" width="4" height="2" fill="#FFFFFF" />
  <rect x="35" y="25" width="4" height="2" fill="#FFFFFF" />
  
  <!-- Construction cone -->
  <polygon points="20,15 24,15 22,8" fill="#FF6600" />
  <rect x="20" y="15" width="4" height="3" fill="#FF6600" />
  <rect x="19" y="18" width="6" height="1.5" fill="#FFFFFF" />
  <rect x="19" y="20" width="6" height="1.5" fill="#FFFFFF" />
  
  <!-- Repair icon -->
  <circle cx="35" cy="15" r="6" fill="#00ABE4" />
  <path d="M32 15 L38 15 M35 12 L35 18" stroke="#FFFFFF" stroke-width="1.5" />
  
  <!-- Text -->
  <text x="55" y="25" font-family="Inter, Arial, sans-serif" font-size="16" font-weight="bold" fill="#00ABE4">RoadRepair</text>
  <text x="55" y="38" font-family="Inter, Arial, sans-serif" font-size="10" fill="#333333">Tracking System</text>
  
  <!-- Decorative element -->
  <path d="M145 15 Q 155 5, 165 15 Q 175 25, 185 15" stroke="#00ABE4" stroke-width="2" fill="none" />
</svg>
